<?xml version="1.0" standalone="no"?><!DOCTYPE svg PUBLIC "-//W3C//DTD SVG 1.1//EN" "http://www.w3.org/Graphics/SVG/1.1/DTD/svg11.dtd"><svg t="1577946331204" class="icon" viewBox="0 0 1024 1024" version="1.1" xmlns="http://www.w3.org/2000/svg" p-id="4954" xmlns:xlink="http://www.w3.org/1999/xlink" width="16" height="16"><defs><style type="text/css"></style></defs><path d="M729.6 0v83.2h153.6l-147.2 147.2 57.6 57.6 147.2-147.2v153.6H1024V0z" fill="#3E6480" p-id="4955"></path><path d="M832 947.2v-576H480L358.4 262.4h-320v684.8H832z" fill="#FFFFFF" p-id="4956"></path><path d="M428.8 441.6h326.4v531.2h96V345.6h-384L345.6 224H0v748.8h96V320h211.2" fill="#3E6480" p-id="4957"></path><path d="M64 934.4l192-339.2h710.4l-140.8 339.2z" fill="#FFFFFF" p-id="4958"></path><path d="M908.8 633.6L800 896H134.4l147.2-262.4h627.2M1024 556.8H230.4L0 972.8h851.2L1024 556.8z" fill="#3E6480" p-id="4959"></path></svg>